# xmcd
#
# Track frame offsets:
#	150
#	20503
#	44523
#	60760
#	80368
#	98308
#	110143
#	131615
#	152593
#
# Disc length: 2333 seconds
#
# Revision: 1
# Processed by: cddbd v1.5.1PL0 Copyright (c) Steve Scherf et al.
# Submitted via: audiograbber 1.83.01
#
DISCID=63091b09
DTITLE=Fugitives - Fugitivity
DYEAR=1992
DGENRE=Blues
TTITLE0=Sickos from outer space
TTITLE1=Little green man
TTITLE2=Two fools
TTITLE3=I blame you
TTITLE4=Elliots pig
TTITLE5=Bureacracy
TTITLE6=The other side of the penny
TTITLE7=If you need me (live)
TTITLE8=Rip it up (live)
EXTD=
EXTT0=
EXTT1=
EXTT2=
EXTT3=
EXTT4=
EXTT5=
EXTT6=
EXTT7=
EXTT8=
PLAYORDER=
